Coordinates
version=1
nRows=17
nColumns=24
inDegrees=yes

Units are S.I. units (second, meters, Newtons, ...)
Angles are in degrees.

endheader
time	pelvis_tilt	pelvis_list	pelvis_rotation	pelvis_tx	pelvis_ty	pelvis_tz	hip_flexion_r	hip_adduction_r	hip_rotation_r	knee_angle_r	ankle_angle_r	subtalar_angle_r	mtp_angle_r	hip_flexion_l	hip_adduction_l	hip_rotation_l	knee_angle_l	ankle_angle_l	subtalar_angle_l	mtp_angle_l	lumbar_extension	lumbar_bending	lumbar_rotation
      5.97000000	     91.67143973	     33.60915868	    -92.19117355	      1.03013746	      0.28132441	      1.07827155	     13.68370656	     -6.24186416	      5.91089367	    -69.11041459	     -8.44779876	      0.00000000	      0.00000000	     10.32645975	     -7.46345887	     -6.54409967	    -73.47307757	    -10.37355459	      0.00000000	      0.00000000	      0.00000000	      0.00000000	      0.00000000
      5.98000000	     91.67265943	     33.61777640	    -92.19051900	      1.03013783	      0.28133008	      1.07826266	     13.68413192	     -6.24114309	      5.93551935	    -69.03409549	     -8.27473954	      0.00000000	      0.00000000	     10.34278169	     -7.46292345	     -6.53866114	    -73.47684517	    -10.38840653	      0.00000000	      0.00000000	      0.00000000	      0.00000000	      0.00000000
      5.99000000	     91.67070783	     33.62376663	    -92.19371778	      1.03009727	      0.28132780	      1.07821800	     13.68370631	     -6.24163825	      5.95051168	    -68.96502612	     -8.03841637	      0.00000000	      0.00000000	     10.35265456	     -7.46383069	     -6.53374863	    -73.48381959	    -10.40353843	      0.00000000	      0.00000000	      0.00000000	      0.00000000	      0.00000000
      6.00000000	     91.66744318	     33.62921459	    -92.19841048	      1.03007345	      0.28132553	      1.07818339	     13.68126425	     -6.24672124	      5.95794976	    -68.91646514	     -7.83730299	      0.00000000	      0.00000000	     10.35873205	     -7.46544245	     -6.52942363	    -73.49091028	    -10.41660856	      0.00000000	      0.00000000	      0.00000000	      0.00000000	      0.00000000
      6.01000000	     91.66561857	     33.63354428	    -92.20128328	      1.03009293	      0.28133042	      1.07817681	     13.67972856	     -6.25601288	      5.96214536	    -68.89393760	     -7.74291475	      0.00000000	      0.00000000	     10.36248259	     -7.46700905	     -6.52541867	    -73.49664684	    -10.42591152	      0.00000000	      0.00000000	      0.00000000	      0.00000000	      0.00000000
      6.02000000	     91.66657438	     33.63574022	    -92.20072740	      1.03013393	      0.28133857	      1.07818341	     13.68324057	     -6.26735999	      5.96668272	    -68.89452521	     -7.77722504	      0.00000000	      0.00000000	     10.36437800	     -7.46796008	     -6.52142054	    -73.50119124	    -10.43079934	      0.00000000	      0.00000000	      0.00000000	      0.00000000	      0.00000000
      6.03000000	     91.66949145	     33.63600121	    -92.19764214	      1.03016336	      0.28134109	      1.07818577	     13.69351078	     -6.27899664	      5.97286631	    -68.91028122	     -7.91133074	      0.00000000	      0.00000000	     10.36523066	     -7.46804843	     -6.51734684	    -73.50535065	    -10.43165478	      0.00000000	      0.00000000	      0.00000000	      0.00000000	      0.00000000
      6.04000000	     91.67256154	     33.63602585	    -92.19444926	      1.03016734	      0.28133768	      1.07817826	     13.70843823	     -6.29033565	      5.97957698	    -68.93263712	     -8.08303518	      0.00000000	      0.00000000	     10.36657942	     -7.46726701	     -6.51350776	    -73.50983140	    -10.42954679	      0.00000000	      0.00000000	      0.00000000	      0.00000000	      0.00000000
      6.05000000	     91.67467258	     33.63788900	    -92.19340298	      1.03015538	      0.28133761	      1.07816377	     13.72357493	     -6.30163811	      5.98434548	    -68.95562446	     -8.22421395	      0.00000000	      0.00000000	     10.36987546	     -7.46566685	     -6.51050343	    -73.51505642	    -10.42573465	      0.00000000	      0.00000000	      0.00000000	      0.00000000	      0.00000000
      6.06000000	     91.67607259	     33.64250739	    -92.19535499	      1.03014524	      0.28134674	      1.07814784	     13.73473754	     -6.31351306	      5.98510295	    -68.97727511	     -8.28643509	      0.00000000	      0.00000000	     10.37547461	     -7.46322611	     -6.50888236	    -73.52118101	    -10.42118808	      0.00000000	      0.00000000	      0.00000000	      0.00000000	      0.00000000
      6.07000000	     91.67785446	     33.64898951	    -92.19970510	      1.03014515	      0.28136101	      1.07813423	     13.73966222	     -6.32655170	      5.98153927	    -68.99946834	     -8.25562361	      0.00000000	      0.00000000	     10.38235832	     -7.45987374	     -6.50875821	    -73.52801856	    -10.41628992	      0.00000000	      0.00000000	      0.00000000	      0.00000000	      0.00000000
      6.08000000	     91.68106473	     33.65509996	    -92.20518821	      1.03015338	      0.28137444	      1.07812511	     13.73822287	     -6.34109571	      5.97536062	    -69.02648603	     -8.15191283	      0.00000000	      0.00000000	     10.38864009	     -7.45569082	     -6.50963292	    -73.53500142	    -10.41084532	      0.00000000	      0.00000000	      0.00000000	      0.00000000	      0.00000000
      6.09000000	     91.68612283	     33.65854423	    -92.21061092	      1.03016554	      0.28138637	      1.07811946	     13.73167231	     -6.35705588	      5.96944937	    -69.06278844	     -8.01687559	      0.00000000	      0.00000000	     10.39232389	     -7.45099077	     -6.51071284	    -73.54137433	    -10.40438089	      0.00000000	      0.00000000	      0.00000000	      0.00000000	      0.00000000
      6.10000000	     91.69272133	     33.65818403	    -92.21512019	      1.03017807	      0.28139723	      1.07811422	     13.72173490	     -6.37382029	      5.96656495	    -69.11080204	     -7.89482616	      0.00000000	      0.00000000	     10.39194197	     -7.44618483	     -6.51154874	    -73.54652843	    -10.39654903	      0.00000000	      0.00000000	      0.00000000	      0.00000000	      0.00000000
      6.11000000	     91.70005243	     33.65431870	    -92.21830054	      1.03019102	      0.28140298	      1.07811300	     13.71009567	     -6.39034284	      5.96835337	    -69.16967890	     -7.81627847	      0.00000000	      0.00000000	     10.38699912	     -7.44170042	     -6.51236664	    -73.55022042	    -10.38740798	      0.00000000	      0.00000000	      0.00000000	      0.00000000	      0.00000000
      6.12000000	     91.70714461	     33.64833806	    -92.22043299	      1.03020456	      0.28140065	      1.07812348	     13.69794495	     -6.40532327	      5.97496447	    -69.23584021	     -7.78962952	      0.00000000	      0.00000000	     10.37818087	     -7.43800786	     -6.51379725	    -73.55253854	    -10.37745239	      0.00000000	      0.00000000	      0.00000000	      0.00000000	      0.00000000
      6.13000000	     91.71306909	     33.64204991	    -92.22244729	      1.03021501	      0.28139275	      1.07814361	     13.68566632	     -6.41758775	      5.98534343	    -69.30488056	     -7.80286759	      0.00000000	      0.00000000	     10.36726626	     -7.43554575	     -6.51635093	    -73.55368662	    -10.36742000	      0.00000000	      0.00000000	      0.00000000	      0.00000000	      0.00000000
